<svg width="177" height="32" viewBox="0 0 177 32" fill="none" xmlns="http://www.w3.org/2000/svg">
<g clip-path="url(#clip0_377_10956)">
<g clip-path="url(#clip1_377_10956)">
<path d="M16.5 32C25.3 32 32.5 24.8 32.5 16V4.8C32.5 4.16 32.3667 3.54667 32.1 2.96C31.8867 2.37333 31.54 1.86667 31.06 1.44C30.6333 0.96 30.1267 0.613333 29.54 0.4C28.9533 0.133333 28.34 0 27.7 0H17.3V7.04C17.3 8.64 17.38 10.24 18.26 11.68C18.5267 12.16 18.8733 12.5867 19.3 12.96C19.6733 13.3867 20.1 13.76 20.58 14.08C21.06 14.4 21.5667 14.6667 22.1 14.88C22.6333 15.0933 23.1933 15.2533 23.78 15.36H24.1C24.2067 15.4133 24.3133 15.4933 24.42 15.6C24.4733 15.7067 24.5 15.84 24.5 16C24.5 16.16 24.4733 16.2933 24.42 16.4C24.3133 16.5067 24.2067 16.5867 24.1 16.64H23.78C22.9267 16.8 22.1267 17.0667 21.38 17.44C20.6333 17.8133 19.9667 18.2933 19.38 18.88C18.7933 19.4667 18.3133 20.1333 17.94 20.88C17.5667 21.6267 17.3 22.4267 17.14 23.28V23.6C17.0867 23.7067 17.0067 23.8133 16.9 23.92C16.7933 23.9733 16.66 24 16.5 24C16.34 24 16.2067 23.9733 16.1 23.92C15.9933 23.8133 15.9133 23.7067 15.86 23.6V23.28C15.7533 22.6933 15.5933 22.1333 15.38 21.6C15.1667 21.0667 14.9 20.56 14.58 20.08C14.26 19.6 13.8867 19.1733 13.46 18.8C13.0867 18.3733 12.66 18.0267 12.18 17.76C10.74 16.88 9.14 16.8 7.54 16.8H0.5C0.9 25.28 7.94 32 16.5 32Z" fill="white"/>
<path fill-rule="evenodd" clip-rule="evenodd" d="M0.5 4.97139C0.5 4.33139 0.633333 3.71805 0.9 3.13139C1.11333 2.54472 1.46 2.03805 1.94 1.61139C2.36667 1.13139 2.87333 0.78472 3.46 0.571387C4.04667 0.30472 4.66 0.171387 5.3 0.171387H15.7V7.21139C15.7 8.81139 15.62 10.4114 14.74 11.8514C14.58 12.1181 14.42 12.3581 14.26 12.5714C14.0467 12.8381 13.8333 13.0781 13.62 13.2914C13.4067 13.5047 13.1667 13.7181 12.9 13.9314C12.6867 14.0914 12.4467 14.2514 12.18 14.4114C10.74 15.2914 9.14 15.3714 7.54 15.3714H0.5L0.5 4.97139ZM37.7 1.77139C37.7 2.17139 37.46 2.57139 37.22 2.89139C36.9 3.21139 36.5 3.37139 36.1 3.37139C35.62 3.37139 35.22 3.21139 34.9 2.89139C34.66 2.57139 34.5 2.17139 34.5 1.77139C34.5 1.37139 34.66 0.971387 34.9 0.651387C35.22 0.331387 35.62 0.171387 36.1 0.171387C36.5 0.171387 36.9 0.331387 37.22 0.651387C37.46 0.971387 37.7 1.37139 37.7 1.77139Z" fill="white"/>
<path d="M47.9679 6.48576C49.131 6.48576 50.0315 6.6077 50.6693 6.85158C51.3072 7.07669 51.8512 7.32057 52.3014 7.58321C52.5265 7.71453 52.7048 7.8177 52.8361 7.89274C52.9862 7.94902 53.1269 7.97716 53.2582 7.97716C53.4458 7.97716 53.5771 7.87398 53.6521 7.66763C53.7459 7.46127 53.821 7.15173 53.8772 6.73902H54.5245C54.5057 7.11421 54.4776 7.55507 54.44 8.06158C54.4213 8.56809 54.4025 9.24344 54.3838 10.0876C54.3838 10.9131 54.3838 12.0105 54.3838 13.38H53.7365C53.6615 12.3669 53.427 11.3914 53.0331 10.4534C52.6391 9.51546 52.0951 8.73693 51.401 8.11786C50.7256 7.49879 49.8908 7.18925 48.8965 7.18925C48.0336 7.18925 47.3207 7.43313 46.7579 7.92088C46.1951 8.38988 45.9137 9.06523 45.9137 9.94693C45.9137 10.6598 46.092 11.2789 46.4484 11.8041C46.8048 12.3107 47.3395 12.8266 48.0523 13.3518C48.784 13.8771 49.7032 14.5243 50.81 15.2935C51.6917 15.875 52.4796 16.4566 53.1738 17.0381C53.8679 17.6197 54.4213 18.2763 54.834 19.0079C55.2655 19.7395 55.4812 20.6212 55.4812 21.653C55.4812 22.8911 55.1435 23.9229 54.4682 24.7484C53.7928 25.555 52.9017 26.1647 51.7949 26.5774C50.6881 26.9714 49.4781 27.1684 48.1649 27.1684C46.9455 27.1684 45.97 27.0558 45.2384 26.8307C44.5255 26.6056 43.9158 26.3711 43.4093 26.1272C42.9966 25.8646 42.6777 25.7332 42.4526 25.7332C42.265 25.7332 42.1243 25.8364 42.0305 26.0428C41.9554 26.2491 41.8898 26.5587 41.8335 26.9714H41.1863C41.2238 26.5024 41.2426 25.9584 41.2426 25.3393C41.2613 24.7015 41.2707 23.8854 41.2707 22.8911C41.2895 21.8969 41.2988 20.6306 41.2988 19.0923H41.9461C42.0211 20.368 42.2274 21.5592 42.5651 22.666C42.9216 23.7729 43.4562 24.6733 44.1691 25.3674C44.9007 26.0428 45.8668 26.3805 47.0675 26.3805C47.7428 26.3805 48.3337 26.2679 48.8403 26.0428C49.3468 25.8177 49.7501 25.4894 50.0503 25.0579C50.3504 24.6077 50.5005 24.0636 50.5005 23.4258C50.5005 22.6379 50.3223 21.9532 49.9658 21.3716C49.6094 20.7901 49.1216 20.246 48.5026 19.7395C47.8835 19.2142 47.1613 18.689 46.3358 18.1637C45.4541 17.5821 44.6287 16.9912 43.8595 16.3909C43.0904 15.7906 42.4713 15.1246 42.0023 14.393C41.5521 13.6426 41.327 12.7421 41.327 11.6916C41.327 10.491 41.6365 9.50608 42.2556 8.73693C42.8747 7.96778 43.6907 7.40499 44.7037 7.04855C45.7355 6.67336 46.8236 6.48576 47.9679 6.48576ZM63.3225 11.9167V29.0256C63.3225 29.926 63.5382 30.5264 63.9697 30.8265C64.4199 31.1267 65.0296 31.2768 65.7988 31.2768V31.8677C65.2922 31.8489 64.5888 31.8208 63.6883 31.7833C62.7878 31.7645 61.8405 31.7551 60.8462 31.7551C60.1333 31.7551 59.4204 31.7645 58.7076 31.7833C58.0135 31.8208 57.4882 31.8489 57.1318 31.8677V31.2768C57.7321 31.2768 58.1542 31.1361 58.398 30.8547C58.6419 30.592 58.7639 30.0761 58.7639 29.307V15.2935C58.7639 14.4493 58.6419 13.8302 58.398 13.4362C58.1542 13.0235 57.7133 12.8172 57.0755 12.8172V12.2262C57.6758 12.2825 58.2573 12.3107 58.8201 12.3107C59.6831 12.3107 60.4898 12.2825 61.2401 12.2262C61.9905 12.1512 62.6846 12.048 63.3225 11.9167ZM67.6278 11.8041C68.5846 11.8041 69.4288 12.0668 70.1604 12.5921C70.9108 13.0986 71.5017 13.8771 71.9332 14.9276C72.3834 15.9594 72.6085 17.2632 72.6085 18.839C72.6085 20.3211 72.4397 21.5873 72.102 22.6379C71.7831 23.6884 71.3235 24.5514 70.7232 25.2267C70.1416 25.9021 69.4475 26.3992 68.6409 26.7181C67.8529 27.0183 66.9994 27.1684 66.0802 27.1684C65.386 27.1684 64.7388 27.0652 64.1385 26.8588C63.557 26.6712 63.0974 26.3617 62.7597 25.9302L63.0411 25.5644C63.2099 25.827 63.4444 26.024 63.7446 26.1553C64.0447 26.2867 64.3636 26.3523 64.7013 26.3523C65.4705 26.3523 66.0802 26.0897 66.5304 25.5644C66.9994 25.0204 67.3371 24.2325 67.5434 23.2007C67.7498 22.1689 67.8529 20.912 67.8529 19.43C67.8529 17.7979 67.7591 16.5316 67.5716 15.6311C67.384 14.7119 67.1307 14.0647 66.8118 13.6895C66.4929 13.3143 66.1177 13.1267 65.6862 13.1267C65.0859 13.1267 64.5419 13.3612 64.0541 13.8302C63.5851 14.2804 63.3225 14.8995 63.2662 15.6874L63.2099 14.5055C63.6039 13.6051 64.1854 12.9297 64.9546 12.4795C65.7237 12.0293 66.6148 11.8041 67.6278 11.8041ZM81.6257 11.8041C83.0327 11.8041 84.2615 12.0574 85.312 12.5639C86.3813 13.0517 87.2068 13.8583 87.7883 14.9839C88.3886 16.1095 88.6888 17.6103 88.6888 19.4863C88.6888 21.3622 88.3886 22.863 87.7883 23.9886C87.2068 25.1142 86.3813 25.9302 85.312 26.4367C84.2615 26.9245 83.0327 27.1684 81.6257 27.1684C80.2375 27.1684 79.0088 26.9245 77.9395 26.4367C76.8889 25.9302 76.0635 25.1142 75.4632 23.9886C74.8629 22.863 74.5627 21.3622 74.5627 19.4863C74.5627 17.6103 74.8629 16.1095 75.4632 14.9839C76.0635 13.8583 76.8889 13.0517 77.9395 12.5639C79.0088 12.0574 80.2375 11.8041 81.6257 11.8041ZM81.6257 12.3669C80.9692 12.3669 80.4157 12.9297 79.9655 14.0553C79.534 15.1621 79.3183 16.9725 79.3183 19.4863C79.3183 22.0001 79.534 23.8198 79.9655 24.9453C80.4157 26.0522 80.9692 26.6056 81.6257 26.6056C82.3011 26.6056 82.8545 26.0522 83.286 24.9453C83.7175 23.8198 83.9332 22.0001 83.9332 19.4863C83.9332 16.9725 83.7175 15.1621 83.286 14.0553C82.8545 12.9297 82.3011 12.3669 81.6257 12.3669ZM96.4078 7.61135V12.1981H99.4469V12.7609H96.4078V24.27C96.4078 24.739 96.4922 25.0767 96.6611 25.283C96.8299 25.4706 97.0832 25.5644 97.4208 25.5644C97.7022 25.5644 97.993 25.4706 98.2932 25.283C98.6121 25.0954 98.9029 24.7765 99.1655 24.3263L99.6157 24.6077C99.2593 25.3768 98.7622 25.9959 98.1243 26.4649C97.5053 26.9339 96.6892 27.1684 95.6762 27.1684C95.0571 27.1684 94.5037 27.0839 94.016 26.9151C93.547 26.765 93.153 26.5305 92.8341 26.2116C92.4214 25.7989 92.1494 25.2924 92.018 24.6921C91.9055 24.073 91.8492 23.2757 91.8492 22.3002V12.7609H89.598V12.1981H91.8492V8.68065C92.7309 8.68065 93.5376 8.59623 94.2692 8.4274C95.0196 8.25856 95.7325 7.98654 96.4078 7.61135ZM105.586 7.61135V12.1981H108.625V12.7609H105.586V24.27C105.586 24.739 105.671 25.0767 105.839 25.283C106.008 25.4706 106.262 25.5644 106.599 25.5644C106.881 25.5644 107.171 25.4706 107.472 25.283C107.79 25.0954 108.081 24.7765 108.344 24.3263L108.794 24.6077C108.438 25.3768 107.941 25.9959 107.303 26.4649C106.684 26.9339 105.868 27.1684 104.855 27.1684C104.235 27.1684 103.682 27.0839 103.194 26.9151C102.725 26.765 102.331 26.5305 102.012 26.2116C101.6 25.7989 101.328 25.2924 101.196 24.6921C101.084 24.073 101.028 23.2757 101.028 22.3002V12.7609H98.7764V12.1981H101.028V8.68065C101.909 8.68065 102.716 8.59623 103.448 8.4274C104.198 8.25856 104.911 7.98654 105.586 7.61135ZM116.58 11.8041C118.231 11.8041 119.526 12.2919 120.464 13.2674C121.402 14.2429 121.871 15.8469 121.871 18.0793H112.838L112.81 17.5446H118.044C118.081 16.6254 118.044 15.7812 117.931 15.0121C117.819 14.2242 117.631 13.5957 117.368 13.1267C117.124 12.6577 116.796 12.4232 116.383 12.4232C115.821 12.4232 115.342 12.8266 114.948 13.6332C114.554 14.4399 114.31 15.8093 114.217 17.7416L114.329 17.9386C114.292 18.1449 114.273 18.3607 114.273 18.5858C114.273 18.7921 114.273 19.0173 114.273 19.2611C114.273 20.5556 114.442 21.5873 114.779 22.3565C115.136 23.1256 115.577 23.6697 116.102 23.9886C116.627 24.3075 117.171 24.467 117.734 24.467C118.053 24.467 118.409 24.4201 118.803 24.3263C119.197 24.2325 119.61 24.0355 120.042 23.7353C120.473 23.4352 120.886 22.9943 121.28 22.4128L121.758 22.5816C121.552 23.3132 121.195 24.0355 120.689 24.7484C120.201 25.4425 119.573 26.024 118.803 26.493C118.034 26.9433 117.106 27.1684 116.018 27.1684C114.779 27.1684 113.673 26.9151 112.697 26.4086C111.722 25.8833 110.943 25.0673 110.362 23.9605C109.799 22.8349 109.517 21.3716 109.517 19.5707C109.517 17.7885 109.827 16.3252 110.446 15.1809C111.065 14.0366 111.909 13.1924 112.979 12.6483C114.048 12.0855 115.248 11.8041 116.58 11.8041ZM130.76 11.8041C132.167 11.8041 133.396 12.0574 134.446 12.5639C135.516 13.0517 136.341 13.8583 136.923 14.9839C137.523 16.1095 137.823 17.6103 137.823 19.4863C137.823 21.3622 137.523 22.863 136.923 23.9886C136.341 25.1142 135.516 25.9302 134.446 26.4367C133.396 26.9245 132.167 27.1684 130.76 27.1684C129.372 27.1684 128.143 26.9245 127.074 26.4367C126.023 25.9302 125.198 25.1142 124.598 23.9886C123.997 22.863 123.697 21.3622 123.697 19.4863C123.697 17.6103 123.997 16.1095 124.598 14.9839C125.198 13.8583 126.023 13.0517 127.074 12.5639C128.143 12.0574 129.372 11.8041 130.76 11.8041ZM130.76 12.3669C130.104 12.3669 129.55 12.9297 129.1 14.0553C128.668 15.1621 128.453 16.9725 128.453 19.4863C128.453 22.0001 128.668 23.8198 129.1 24.9453C129.55 26.0522 130.104 26.6056 130.76 26.6056C131.435 26.6056 131.989 26.0522 132.42 24.9453C132.852 23.8198 133.068 22.0001 133.068 19.4863C133.068 16.9725 132.852 15.1621 132.42 14.0553C131.989 12.9297 131.435 12.3669 130.76 12.3669Z" fill="white"/>
</g>
</g>
<defs>
<clipPath id="clip0_377_10956">
<rect width="176.066" height="32" fill="white" transform="translate(0.466797)"/>
</clipPath>
<clipPath id="clip1_377_10956">
<rect width="176" height="32" fill="white" transform="translate(0.5)"/>
</clipPath>
</defs>
</svg>
